<?xml version="1.0" encoding="UTF-8" standalone="no"?>
<svg
   xmlns:dc="http://purl.org/dc/elements/1.1/"
   xmlns:cc="http://creativecommons.org/ns#"
   xmlns:rdf="http://www.w3.org/1999/02/22-rdf-syntax-ns#"
   xmlns:svg="http://www.w3.org/2000/svg"
   xmlns="http://www.w3.org/2000/svg"
   xmlns:sodipodi="http://sodipodi.sourceforge.net/DTD/sodipodi-0.dtd"
   xmlns:inkscape="http://www.inkscape.org/namespaces/inkscape"
   version="1.1"
   id="Capa_1"
   x="0px"
   y="0px"
   viewBox="0 0 283.178 283.178"
   style="enable-background:new 0 0 283.178 283.178;"
   xml:space="preserve"
   sodipodi:docname="external-link.svg"
   inkscape:version="1.0.2 (e86c870879, 2021-01-15)"><metadata
   id="metadata43"><rdf:RDF><cc:Work
       rdf:about=""><dc:format>image/svg+xml</dc:format><dc:type
         rdf:resource="http://purl.org/dc/dcmitype/StillImage" /></cc:Work></rdf:RDF></metadata><defs
   id="defs41" /><sodipodi:namedview
   pagecolor="#ffffff"
   bordercolor="#666666"
   borderopacity="1"
   objecttolerance="10"
   gridtolerance="10"
   guidetolerance="10"
   inkscape:pageopacity="0"
   inkscape:pageshadow="2"
   inkscape:window-width="1920"
   inkscape:window-height="1022"
   id="namedview39"
   showgrid="false"
   inkscape:zoom="0.78882551"
   inkscape:cx="123.55394"
   inkscape:cy="85.493751"
   inkscape:window-x="0"
   inkscape:window-y="28"
   inkscape:window-maximized="1"
   inkscape:current-layer="g6" />
<g
   id="g6">
	<path
   style="fill:#55a5d9;fill-opacity:1"
   d="m 254.812,140.713 h -20 c -4.142,0 -7.5,3.358 -7.5,7.5 v 91.186 c 0,4.84 -3.939,8.778 -8.779,8.778 H 43.776 c -4.839,0 -8.775,-3.938 -8.775,-8.778 V 64.645 c 0,-4.841 3.936,-8.78 8.775,-8.78 h 95.855 c 4.142,0 7.5,-3.358 7.5,-7.5 v -20 c 0,-4.142 -3.358,-7.5 -7.5,-7.5 H 43.776 c -24.138,0 -43.775,19.64 -43.775,43.78 V 239.4 c 0,24.14 19.638,43.778 43.775,43.778 h 174.756 c 24.14,0 43.779,-19.639 43.779,-43.778 v -91.186 c 0.001,-4.143 -3.357,-7.501 -7.499,-7.501 z"
   id="path2" />
	<path
   style="fill:#55a5d9;fill-opacity:1"
   d="m 275.677,0 h -79.553 c -4.142,0 -7.5,3.358 -7.5,7.5 v 20 c 0,4.142 3.358,7.5 7.5,7.5 h 27.304 L 120.683,137.743 c -2.929,2.929 -2.929,7.677 0,10.607 l 14.142,14.143 c 1.407,1.407 3.314,2.197 5.304,2.197 1.989,0 3.897,-0.79 5.303,-2.197 L 248.177,59.748 v 27.303 c 0,4.142 3.358,7.5 7.5,7.5 h 20 c 4.142,0 7.5,-3.358 7.5,-7.5 V 7.5 c 0,-4.142 -3.358,-7.5 -7.5,-7.5 z"
   id="path4" />
</g>















</svg>
